<svg width="63" height="99" viewBox="0 0 63 99" fill="none" xmlns="http://www.w3.org/2000/svg">
<path d="M52.8 86.4C52.8 88.896 53.504 90.72 54.912 91.872C56.384 93.024 58.88 93.6 62.4 93.6V98.4C51.392 98.4 43.84 97.568 39.744 95.904C35.648 94.304 33.6 91.136 33.6 86.4V40.8H24V74.4C24 76.512 24.384 78.176 25.152 79.392C25.984 80.608 26.816 81.28 27.648 81.408L28.8 81.6V86.4H0V81.6C0.128 81.6 0.288 81.6 0.48 81.6C0.736 81.536 1.12 81.376 1.632 81.12C2.208 80.864 2.688 80.512 3.072 80.064C3.52 79.616 3.904 78.912 4.224 77.952C4.608 76.928 4.8 75.744 4.8 74.4V12C4.8 9.76 4.32 8 3.36 6.72C2.4 5.44 1.28 4.8 0 4.8V0C8.704 0 14.88 0.832001 18.528 2.496C22.176 4.16 24 7.328 24 12V36H33.6V12C33.6 9.888 33.184 8.224 32.352 7.008C31.584 5.792 30.784 5.12 29.952 4.992L28.8 4.8V0H57.6V4.8C57.472 4.8 57.28 4.832 57.024 4.896C56.832 4.896 56.448 5.024 55.872 5.28C55.36 5.536 54.88 5.888 54.432 6.336C54.048 6.784 53.664 7.52 53.28 8.544C52.96 9.504 52.8 10.656 52.8 12V86.4Z" fill="url(#paint0_linear_65_207)"/>
<defs>
<linearGradient id="paint0_linear_65_207" x1="31.2" y1="0" x2="31.2" y2="73.2189" gradientUnits="userSpaceOnUse">
<stop offset="0.429987" stop-color="#F15B2A"/>
<stop offset="0.525164" stop-color="#F1F1F1"/>
<stop offset="0.620341" stop-color="#138808"/>
</linearGradient>
</defs>
</svg>
